<?xml version="1.0" encoding="UTF-8" standalone="no"?>
<svg width="235px" height="154px" viewBox="0 0 235 154" version="1.1" xmlns="http://www.w3.org/2000/svg" xmlns:xlink="http://www.w3.org/1999/xlink">
    <!-- Generator: Sketch 47.1 (45422) - http://www.bohemiancoding.com/sketch -->
    <title>cc hospital square</title>
    <desc>Created with Sketch.</desc>
    <defs>
        <filter x="-10.9%" y="-17.7%" width="121.7%" height="135.4%" filterUnits="objectBoundingBox" id="filter-1">
            <feOffset dx="0" dy="0" in="SourceAlpha" result="shadowOffsetOuter1"></feOffset>
            <feGaussianBlur stdDeviation="7.5" in="shadowOffsetOuter1" result="shadowBlurOuter1"></feGaussianBlur>
            <feColorMatrix values="0 0 0 0 0   0 0 0 0 0   0 0 0 0 0  0 0 0 0.739130435 0" type="matrix" in="shadowBlurOuter1" result="shadowMatrixOuter1"></feColorMatrix>
            <feMerge>
                <feMergeNode in="shadowMatrixOuter1"></feMergeNode>
                <feMergeNode in="SourceGraphic"></feMergeNode>
            </feMerge>
        </filter>
    </defs>
    <g id="styles" stroke="none" stroke-width="1" fill="none" fill-rule="evenodd">
        <g id="Assets" transform="translate(-48.000000, -16.000000)">
            <g id="cc-hospital-square" filter="url(#filter-1)" transform="translate(62.000000, 29.000000)">
                <g id="Butterfly" transform="translate(33.000000, 0.000000)" fill="#FFFFFF">
                    <path d="M128.02086,18.4316454 C118.133554,26.7088379 104.887533,30.8063045 94.2999781,32.1081473 C89.0668836,32.6990631 80.4854549,33.3579322 78.1224181,32.6052795 C74.0171457,31.2931047 80.9681229,25.4371967 82.1650116,24.4016038 C86.7333897,20.455542 91.6251434,16.9851535 96.7492483,13.7953208 C101.385895,10.9094899 106.623381,8.3888585 112.176258,7.18318362 C114.003529,6.78698789 115.866332,6.53265963 117.740313,6.46788541 C121.802469,6.32800487 127.338977,6.61770064 129.783457,10.0801414 C131.83749,12.9870339 130.35635,16.2893273 128.02086,18.4316454 Z M121.950183,4.85488793 C112.018562,3.3980639 101.286886,7.15218736 92.6906857,11.676846 C83.5990424,16.877064 74.3568897,23.2320912 69.2403701,32.545274 C65.4357171,39.4721424 63.2591203,48.7694296 66.7655491,55.9371151 C71.0321101,64.6573951 79.9692518,68.4309906 88.8772498,67.7045655 C96.612712,67.0711292 104.630828,61.5498218 108.135261,54.8975484 C110.506682,50.3943487 111.513937,44.0460771 107.276519,40.2685077 C103.375652,36.7854028 97.3628634,36.922899 93.0839263,39.2547712 C88.0328803,41.7571228 84.7767681,46.9505852 82.3989598,51.7935515 C82.0156999,52.573624 81.6907275,53.358465 82.8389102,53.8055264 C84.0330044,54.2728546 85.536501,55.1391602 86.1002124,53.9124238 C86.5956557,52.8382843 87.0926959,51.7681187 87.5538054,50.7015296 C88.3626435,48.8322169 89.3156033,46.9899266 90.5096974,45.3304348 C91.183596,44.3977654 91.9209721,43.5103982 92.7537639,42.7140328 C95.3882765,40.2053231 99.0360324,38.277197 102.779603,38.731014 C106.144306,39.1399261 108.617929,41.6144605 108.694581,45.040739 C108.786803,49.2029798 106.290823,53.1657319 103.942558,56.3782157 C101.616649,59.5589084 98.0144052,63.0269126 94.4269329,64.8322458 C90.7500333,66.67851 86.5497443,66.999202 82.5059532,66.1507788 C75.7809397,64.7396544 72.3296045,61.7687825 70.3789713,55.035442 C69.3689218,51.5451841 69.2782968,47.6706521 70.0935226,44.1676778 C70.6352764,41.8310369 72.1295907,37.206634 74.7361573,36.2040243 C76.6935773,35.4509743 84.7991249,35.7561682 88.6836237,35.4720358 C93.1761483,35.228437 97.7592979,34.2262248 102.163992,33.2383185 C109.044705,31.6920821 114.651478,29.5831446 120.124509,26.1985919 C123.036885,24.3964378 130.788316,20.0561671 131.437862,13.1801644 C131.334062,8.02047992 126.578446,5.53362646 121.950183,4.85488793 L121.950183,4.85488793 Z" id="Fill-20"></path>
                    <g id="Group-24" transform="translate(0.594930, 0.000000)">
                        <path d="M53.578935,32.6052795 C51.2158982,33.3579322 42.6356673,32.6990631 37.4017744,32.1081473 C26.8158166,30.8063045 13.5681988,26.7088379 3.68089192,18.4316454 C1.34540193,16.2893273 -0.13573788,12.9870339 1.91869486,10.0801414 C4.36437207,6.61770064 9.90088065,6.32800487 13.9610402,6.46788541 C15.8358198,6.53265963 17.6982234,6.78698789 19.5250956,7.18318362 C25.0795695,8.3888585 30.3158578,10.9094899 34.9521048,13.7953208 C40.078206,16.9851535 44.9695604,20.455542 49.5367408,24.4016038 C50.7352264,25.4371967 57.6866028,31.2931047 53.578935,32.6052795 Z M62.4629793,32.545274 C57.3468589,23.2320912 48.1023108,16.877064 39.0110667,11.676846 C30.4148666,7.15218736 19.6847872,3.3980639 9.75156898,4.85488793 C5.12290728,5.53362646 0.367689963,8.02047992 0.265487324,13.1801644 C0.913036857,20.0561671 8.66486749,24.3964378 11.5772435,26.1985919 C17.0502746,29.5831446 22.6562491,31.6920821 29.5377604,33.2383185 C33.9420553,34.2262248 38.5256042,35.228437 43.0189272,35.4720358 C46.9038252,35.7561682 55.0085743,35.4509743 56.9651959,36.2040243 C59.5713632,37.206634 61.0672745,41.8310369 61.610226,44.1676778 C62.4238548,47.6706521 62.3348267,51.5451841 61.3223819,55.035442 C59.3717487,61.7687825 55.9192158,64.7396544 49.1969969,66.1507788 C45.1532058,66.999202 40.9533161,66.67851 37.2748195,64.8322458 C33.6873472,63.0269126 30.0851034,59.5589084 27.7595941,56.3782157 C25.4109296,53.1657319 22.9149495,49.2029798 23.0087683,45.040739 C23.0854203,41.6144605 25.5586443,39.1399261 28.9221491,38.731014 C32.6673169,38.277197 36.3150729,40.2053231 38.9475893,42.7140328 C39.7823772,43.5103982 40.5197533,44.3977654 41.1924543,45.3304348 C42.3877461,46.9899266 43.3395081,48.8322169 44.147947,50.7015296 C44.6094558,51.7681187 45.1076936,52.8382843 45.6031369,53.9124238 C46.1664491,55.1391602 47.6691473,54.2728546 48.8640399,53.8055264 C50.0114242,53.358465 49.6864517,52.573624 49.3047887,51.7935515 C46.9269805,46.9505852 43.670469,41.7571228 38.6182253,39.2547712 C34.3384898,36.922899 28.3261002,36.7854028 24.425233,40.2685077 C20.1894127,44.0460771 21.1946715,50.3943487 23.567689,54.8975484 C27.070924,61.5498218 35.0890404,67.0711292 42.8260996,67.7045655 C51.7325006,68.4309906 60.6700416,64.6573951 64.9381994,55.9371151 C68.444229,48.7694296 66.2680314,39.4721424 62.4629793,32.545274 L62.4629793,32.545274 Z" id="Fill-21"></path>
                        <path d="M54.1310688,1.62174001 C54.1650033,2.39585163 53.559772,3.04875994 52.7868646,3.08094836 C52.0083679,3.11353417 51.3524346,2.50950457 51.320097,1.73539294 C51.2873602,0.962473486 51.8933899,0.309962559 52.6694912,0.27777414 C53.4443948,0.246777884 54.1019251,0.847628384 54.1310688,1.62174001" id="Fill-23"></path>
                    </g>
                    <path d="M52.618069,33.0781711 C53.0408525,33.5105292 57.217587,32.1780875 57.8930825,31.9917126 C59.213333,31.6277053 60.5128236,31.1623641 61.7113092,30.4951498 C63.6719231,29.4015383 65.1881951,27.8580837 65.8022094,25.6613234 C66.4210144,23.4403225 66.390673,21.0977208 64.865618,19.1258821 C63.3062293,17.1111254 61.0437983,16.001221 58.7055137,15.2771803 C57.2938397,14.840451 55.8566151,14.5102217 54.4405496,14.0949513 C39.2371086,9.64221992 45.4654812,5.49388767 45.4654812,5.49388767 C45.4654812,5.49388767 47.8820146,3.31421506 51.2423256,2.71177501 C47.5119293,3.58642577 46.2451755,5.6933764 46.2451755,5.6933764 C46.2451755,5.6933764 42.9679042,10.0785518 55.9524301,13.2584498 C58.2475979,13.961429 69.2567384,15.5136261 68.126521,25.9915528 C66.9180546,37.192328 53.8736444,35.6274145 53.8736444,35.6274145 C53.8736444,35.6274145 52.9462353,33.4143613 52.618069,33.0781711" id="Fill-25"></path>
                    <path d="M70.6632224,6.9014356 C70.6632224,7.5022861 70.174566,7.99345754 69.5653425,7.99345754 C68.9625066,7.99345754 68.4722533,7.5022861 68.4722533,6.9014356 C68.4722533,6.29899555 68.9625066,5.80981105 69.5653425,5.80981105 C70.174566,5.80981105 70.6632224,6.29899555 70.6632224,6.9014356" id="Fill-26"></path>
                    <path d="M81.1709312,33.0976431 C81.0671317,33.2192438 78.8142821,33.0976431 75.1912784,32.4359923 C72.4837069,31.9404496 71.3471018,31.8053377 68.9724874,30.147038 C66.2130161,28.2252701 63.2156043,25.286984 62.9616946,21.1736219 C62.7345333,17.4445339 63.7984788,12.9210675 65.7750618,10.0415948 C65.8149847,9.98476829 66.3743046,9.12958954 67.220271,8.28593503 C66.1024297,8.79856542 65.5586797,9.52061923 65.0456703,10.0924604 C62.1269067,14.1247554 60.5244012,20.3605663 62.3884017,25.2683068 C63.7837073,28.9421579 66.1451472,33.0916823 69.3349873,34.48254 C72.2333903,35.7470282 73.1999239,35.6572186 76.0959314,35.7470282 C76.2404524,35.7521943 80.2287507,35.5948287 80.3541086,35.446603 L81.1709312,33.0976431" id="Fill-27"></path>
                </g>
                <path d="M16.2919997,88.636 C14.939993,86.7293238 12.8426806,85.776 9.99999974,85.776 C7.55598752,85.776 5.6146736,86.44766 4.17599974,87.791 C2.73732588,89.13434 2.01799974,90.941322 2.01799974,93.212 C2.01799974,95.4653446 2.70265956,97.2593267 4.07199974,98.594 C5.44133992,99.9286733 7.32198778,100.596 9.71399974,100.596 C12.4526801,100.596 14.5759922,99.625343 16.0839997,97.684 L17.5139997,98.594 C15.6419904,100.986012 13.050683,102.182 9.73999974,102.182 C6.8453186,102.182 4.5486749,101.380341 2.84999974,99.777 C1.15132458,98.1736586 0.301999738,96.0200135 0.301999738,93.316 C0.301999738,90.5253194 1.17732432,88.3066749 2.92799974,86.66 C4.67867516,85.0133251 7.03598492,84.19 9.99999974,84.19 C13.4493503,84.19 16.0319912,85.3686549 17.7479997,87.726 L16.2919997,88.636 Z M36.3599998,102 L33.8379998,96.566 L24.6599998,96.566 L22.0859998,102 L20.1619998,102 L28.6379998,84.372 L30.0939998,84.372 L38.2579998,102 L36.3599998,102 Z M29.3659998,86.894 L25.4399998,94.98 L33.1099998,94.98 L29.3659998,86.894 Z M48.7579998,102.182 C46.452655,102.182 44.5980069,101.774671 43.1939998,100.96 C41.425991,99.9546616 40.5419998,98.3773441 40.5419998,96.228 L40.5419998,95.422 L42.2579998,95.422 L42.2579998,96.124 C42.2579998,99.1053482 44.4333114,100.596 48.7839998,100.596 C50.3093408,100.596 51.5746615,100.379335 52.5799998,99.946 C53.8453395,99.3739971 54.4779998,98.5073391 54.4779998,97.346 C54.4779998,96.5486627 54.2526688,95.9420021 53.8019998,95.526 C53.4206646,95.1619982 52.7620045,94.8500013 51.8259998,94.59 C51.3059972,94.4339992 50.0753429,94.1566687 48.1339998,93.758 C45.8979887,93.2899977 44.3813372,92.8566687 43.5839998,92.458 C41.9373249,91.6433293 41.1139998,90.4213415 41.1139998,88.792 C41.1139998,85.7239847 43.4973093,84.19 48.2639998,84.19 C53.2386914,84.19 55.7606662,86.1659802 55.8299998,90.118 L54.1399998,90.118 C54.0186659,88.2979909 53.4206719,87.0933363 52.3459998,86.504 C51.444662,86.0186642 50.0840089,85.776 48.2639998,85.776 C44.6413151,85.776 42.8299998,86.7813233 42.8299998,88.792 C42.8299998,89.7800049 43.3066617,90.5166642 44.2599998,91.002 C44.9360032,91.3660018 46.1146581,91.6866653 47.7959998,91.964 C50.9853491,92.5360029 53.1173278,93.1339969 54.1919998,93.758 C55.5266732,94.5380039 56.1939998,95.7599917 56.1939998,97.424 C56.1939998,99.1053417 55.3186753,100.370662 53.5679998,101.22 C52.2333265,101.861337 50.6300092,102.182 48.7579998,102.182 Z M67.5259999,85.958 L67.5259999,102 L65.8099999,102 L65.8099999,85.958 L59.0499999,85.958 L59.0499999,84.372 L74.2599999,84.372 L74.2599999,85.958 L67.5259999,85.958 Z M77.3499999,102 L77.3499999,84.372 L79.0659999,84.372 L79.0659999,100.414 L90.1939999,100.414 L90.1939999,102 L77.3499999,102 Z M93.18,102 L93.18,84.372 L106.986,84.372 L106.986,85.958 L94.87,85.958 L94.87,92.042 L105.608,92.042 L105.608,93.602 L94.87,93.602 L94.87,100.414 L107.116,100.414 L107.116,102 L93.18,102 Z M138.282,88.636 C136.929993,86.7293238 134.832681,85.776 131.99,85.776 C129.545988,85.776 127.604674,86.44766 126.166,87.791 C124.727326,89.13434 124.008,90.941322 124.008,93.212 C124.008,95.4653446 124.69266,97.2593267 126.062,98.594 C127.43134,99.9286733 129.311988,100.596 131.704,100.596 C134.44268,100.596 136.565993,99.625343 138.074,97.684 L139.504,98.594 C137.631991,100.986012 135.040683,102.182 131.73,102.182 C128.835319,102.182 126.538675,101.380341 124.84,99.777 C123.141325,98.1736586 122.292,96.0200135 122.292,93.316 C122.292,90.5253194 123.167325,88.3066749 124.918,86.66 C126.668675,85.0133251 129.025985,84.19 131.99,84.19 C135.439351,84.19 138.021991,85.3686549 139.738,87.726 L138.282,88.636 Z M156.218,93.394 C157.847342,94.1740039 158.662,95.5173238 158.662,97.424 L158.662,102 L156.946,102 L156.946,97.502 C156.946,95.3526559 155.394682,94.278 152.292,94.278 L145.558,94.278 L145.558,102 L143.842,102 L143.842,84.372 L152.526,84.372 C156.790021,84.372 158.922,85.9493176 158.922,89.104 C158.922,91.1320101 158.020676,92.5619958 156.218,93.394 Z M152.578,85.958 L145.558,85.958 L145.558,92.666 L152.162,92.666 C153.618007,92.666 154.787996,92.4060026 155.672,91.886 C156.694672,91.2793303 157.206,90.3693394 157.206,89.156 C157.206,87.0239893 155.663349,85.958 152.578,85.958 Z M177.742,102 L175.22,96.566 L166.042,96.566 L163.468,102 L161.544,102 L170.02,84.372 L171.476,84.372 L179.64,102 L177.742,102 Z M170.748,86.894 L166.822,94.98 L174.492,94.98 L170.748,86.894 Z M182.47,102 L182.47,84.372 L184.186,84.372 L184.186,102 L182.47,102 Z M203.76,100.544 C202.130659,101.636005 200.180678,102.182 197.91,102.182 C194.911319,102.182 192.536676,101.419341 190.786,99.894 C188.965991,98.3166588 188.056,96.0980143 188.056,93.238 C188.056,90.4473194 188.926992,88.2416748 190.669,86.621 C192.411009,85.0003252 194.763985,84.19 197.728,84.19 C199.929345,84.19 201.76666,84.623329 203.24,85.49 C204.921342,86.4953384 206.030664,88.2113212 206.568,90.638 L204.8,90.638 C204.401332,88.9566583 203.634339,87.7260039 202.499,86.946 C201.363661,86.1659961 199.78201,85.776 197.754,85.776 C195.275321,85.776 193.325341,86.4346601 191.904,87.752 C190.48266,89.0693399 189.772,90.8893217 189.772,93.212 C189.772,95.5693451 190.491326,97.3893269 191.93,98.672 C193.368674,99.9546731 195.361988,100.596 197.91,100.596 C199.868677,100.596 201.523994,100.110672 202.876,99.14 C204.314674,98.1173282 205.034,96.7480086 205.034,95.032 L205.034,94.772 L197.468,94.772 L197.468,93.186 L206.646,93.186 C206.732667,93.8793368 206.776,94.3993316 206.776,94.746 C206.776,97.2593459 205.770677,99.1919932 203.76,100.544 Z" id="CASTLE-CRAIG" fill="#F7D684"></path>
                <path d="M46.3543688,126 L46.3543688,119.54 L36.7743688,119.54 L36.7743688,126 L35.4543688,126 L35.4543688,112.44 L36.7743688,112.44 L36.7743688,118.34 L46.3543688,118.34 L46.3543688,112.44 L47.6743688,112.44 L47.6743688,126 L46.3543688,126 Z M61.9343688,126.14 C59.6543574,126.14 57.8643753,125.526673 56.5643688,124.3 C55.2643623,123.073327 54.6143688,121.380011 54.6143688,119.22 C54.6143688,117.099989 55.2743622,115.440006 56.5943688,114.24 C57.8877086,113.079994 59.6676908,112.5 61.9343688,112.5 C64.2010468,112.5 65.9876956,113.079994 67.2943688,114.24 C68.6277088,115.440006 69.2943688,117.099989 69.2943688,119.22 C69.2943688,121.353344 68.6343754,123.039994 67.3143688,124.28 C65.9943622,125.520006 64.2010468,126.14 61.9343688,126.14 Z M61.9343688,113.72 C60.041026,113.72 58.5677074,114.199995 57.5143688,115.16 C56.4610302,116.120005 55.9343688,117.473325 55.9343688,119.22 C55.9343688,120.980009 56.4643635,122.369995 57.5243688,123.39 C58.5843741,124.410005 60.0543594,124.92 61.9343688,124.92 C63.841045,124.92 65.3243635,124.416672 66.3843688,123.41 C67.4443741,122.403328 67.9743688,121.006676 67.9743688,119.22 C67.9743688,117.459991 67.4443741,116.103338 66.3843688,115.15 C65.3243635,114.196662 63.841045,113.72 61.9343688,113.72 Z M82.0943688,126.14 C80.3210266,126.14 78.8943742,125.82667 77.8143688,125.2 C76.454362,124.426663 75.7743688,123.213342 75.7743688,121.56 L75.7743688,120.94 L77.0943688,120.94 L77.0943688,121.48 C77.0943688,123.773345 78.7676854,124.92 82.1143688,124.92 C83.287708,124.92 84.2610316,124.753335 85.0343688,124.42 C86.007707,123.979998 86.4943688,123.313338 86.4943688,122.42 C86.4943688,121.806664 86.3210372,121.340002 85.9743688,121.02 C85.681034,120.739999 85.1743724,120.500001 84.4543688,120.3 C84.0543668,120.179999 83.1077096,119.966668 81.6143688,119.66 C79.8943602,119.299998 78.7277052,118.966668 78.1143688,118.66 C76.8476958,118.03333 76.2143688,117.09334 76.2143688,115.84 C76.2143688,113.479988 78.0476838,112.3 81.7143688,112.3 C85.5410546,112.3 87.4810352,113.819985 87.5343688,116.86 L86.2343688,116.86 C86.141035,115.459993 85.6810396,114.533336 84.8543688,114.08 C84.161032,113.706665 83.1143758,113.52 81.7143688,113.52 C78.9276882,113.52 77.5343688,114.293326 77.5343688,115.84 C77.5343688,116.600004 77.9010318,117.166665 78.6343688,117.54 C79.1543714,117.820001 80.061029,118.066666 81.3543688,118.28 C83.8077144,118.720002 85.447698,119.179998 86.2743688,119.66 C87.3010406,120.260003 87.8143688,121.199994 87.8143688,122.48 C87.8143688,123.77334 87.1410422,124.746663 85.7943688,125.4 C84.767697,125.893336 83.534376,126.14 82.0943688,126.14 Z M104.794369,119.4 C103.847697,119.946669 102.667709,120.22 101.254369,120.22 L96.3543688,120.22 L96.3543688,126 L95.0343688,126 L95.0343688,112.44 L101.474369,112.44 C104.874386,112.44 106.574369,113.75332 106.574369,116.38 C106.574369,117.71334 105.981041,118.719997 104.794369,119.4 Z M101.594369,113.66 L96.3543688,113.66 L96.3543688,119 L101.614369,119 C102.614374,119 103.447699,118.786669 104.114369,118.36 C104.861039,117.893331 105.234369,117.240004 105.234369,116.4 C105.234369,114.573324 104.021048,113.66 101.594369,113.66 Z M113.454369,126 L113.454369,112.44 L114.774369,112.44 L114.774369,126 L113.454369,126 Z M127.554369,113.66 L127.554369,126 L126.234369,126 L126.234369,113.66 L121.034369,113.66 L121.034369,112.44 L132.734369,112.44 L132.734369,113.66 L127.554369,113.66 Z M150.194369,126 L148.254369,121.82 L141.194369,121.82 L139.214369,126 L137.734369,126 L144.254369,112.44 L145.374369,112.44 L151.654369,126 L150.194369,126 Z M144.814369,114.38 L141.794369,120.6 L147.694369,120.6 L144.814369,114.38 Z M157.754369,126 L157.754369,112.44 L159.074369,112.44 L159.074369,124.78 L167.634369,124.78 L167.634369,126 L157.754369,126 Z" id="HOSPITAL" fill="#F7D684"></path>
            </g>
        </g>
    </g>
</svg>