<?xml version="1.0" encoding="UTF-8" standalone="no"?>
<svg width="61px" height="31px" viewBox="0 0 61 31" version="1.1" xmlns="http://www.w3.org/2000/svg" xmlns:xlink="http://www.w3.org/1999/xlink">
    <!-- Generator: Sketch 42 (36781) - http://www.bohemiancoding.com/sketch -->
    <title>Logo mobile</title>
    <desc>Created with Sketch.</desc>
    <defs>
        <rect id="path-1" x="0" y="0" width="73" height="35"></rect>
    </defs>
    <g id="Intermediate-design" stroke="none" stroke-width="1" fill="none" fill-rule="evenodd">
        <g id="Mobile-Assets" transform="translate(-31.000000, -30.000000)">
            <g id="Logo-mobile" transform="translate(25.000000, 30.000000)">
                <mask id="mask-2" fill="white">
                    <use xlink:href="#path-1"></use>
                </mask>
                <g id="Rectangle-2"></g>
                <g id="cc-hospital-square" mask="url(#mask-2)">
                    <g transform="translate(5.935484, 0.000000)">
                        <path d="M58.834644,8.42739369 C54.3327543,12.2119261 48.3015744,14.0853869 43.4808478,14.6806208 C41.0981145,14.9508018 37.1908174,15.2520527 36.1148792,14.9079217 C34.2456661,14.3079637 37.4105859,11.630501 37.9555534,11.1570029 C40.0356278,9.3527681 42.2629417,7.76602261 44.5960498,6.30755405 C46.7072081,4.98808242 49.0919409,3.83558882 51.6202775,3.28432513 C52.452271,3.10317487 53.3004426,2.98688984 54.1537039,2.9572735 C56.0032851,2.89331674 58.5241689,3.02577265 59.6371896,4.60888423 C60.5724324,5.93798571 59.8980396,7.44787406 58.834644,8.42739369 Z M56.0705426,2.21977208 C51.5484756,1.55367693 46.6621274,3.27015289 42.7481046,5.33893614 C38.6084964,7.71660148 34.4003583,10.6222735 32.070704,14.8804857 C30.338369,18.0476173 29.3473207,22.2985617 30.9438683,25.5758007 C32.8865193,29.5629235 36.9557797,31.2883025 41.0117705,30.9561634 C44.5338821,30.666541 48.1846918,28.1420659 49.7803305,25.1004857 C50.860086,23.041514 51.3187095,20.1389308 49.3893281,18.4117348 C47.6131848,16.8191751 44.8754411,16.8820417 42.927155,17.94823 C40.6273121,19.0923656 39.1447387,21.4669421 38.0620747,23.6812633 C37.8875688,24.0379313 37.7396023,24.3967796 38.262393,24.6011869 C38.8060881,24.8148606 39.4906603,25.2109565 39.7473295,24.6500629 C39.9729148,24.1589404 40.1992272,23.6696348 40.4091796,23.1819645 C40.7774599,22.3272696 41.2113616,21.48493 41.7550567,20.7261702 C42.0618963,20.2997312 42.3976385,19.8940055 42.7768254,19.529888 C43.9763719,18.3828453 45.6372686,17.5012594 47.3417917,17.7087555 C48.8738085,17.89572 50.0000989,19.027137 50.0350001,20.5937143 C50.0769906,22.4967914 48.9405207,24.3086574 47.8713082,25.7774826 C46.8122753,27.2317722 45.1721012,28.8174275 43.5386529,29.6428694 C41.8644865,30.487026 39.9520104,30.6336542 38.1107909,30.2457346 C35.048757,29.6005344 33.4772946,28.24218 32.5891321,25.163534 C32.1292362,23.5677037 32.0879728,21.7961741 32.4591615,20.1945296 C32.7058329,19.1261609 33.3862243,17.0117722 34.5730465,16.5533548 C35.4642993,16.2090421 39.1549182,16.3485841 40.9236086,16.218672 C42.9691454,16.1072927 45.0559457,15.649057 47.0614916,15.1973624 C50.1944186,14.4903858 52.7472951,13.5261286 55.2392763,11.9786293 C56.5653397,11.1546409 60.0947224,9.17016427 60.3904736,6.02628965 C60.3432115,3.66715723 58.1778836,2.53010774 56.0705426,2.21977208 L56.0705426,2.21977208 Z" id="Fill-20" fill="#FFFFFF"></path>
                        <g id="Group-24" stroke-width="1" fill="none" transform="translate(0.815054, 0.000000)">
                            <path d="M24.3955672,14.9079217 C23.319629,15.2520527 19.4128772,14.9508018 17.0297804,14.6806208 C12.2097809,14.0853869 6.17787391,12.2119261 1.67598415,8.42739369 C0.612588568,7.44787406 -0.0618041879,5.93798571 0.873620374,4.60888423 C1.98718642,3.02577265 4.50807018,2.89331674 6.3567425,2.9572735 C7.2103674,2.98688984 8.05835722,3.10317487 8.89016887,3.28432513 C11.4192326,3.83558882 13.80342,4.98808242 15.9143966,6.30755405 C18.2484136,7.76602261 20.4755457,9.3527681 22.5550748,11.1570029 C23.1007694,11.630501 26.265871,14.3079637 24.3955672,14.9079217 Z M28.4406513,14.8804857 C26.1111787,10.6222735 21.90195,7.71660148 17.7625236,5.33893614 C13.8485007,3.27015289 8.96287968,1.55367693 4.44008557,2.21977208 C2.33256276,2.53010774 0.167416638,3.66715723 0.12088172,6.02628965 C0.415724052,9.17016427 3.94528851,11.1546409 5.2713519,11.9786293 C7.76333311,13.5261286 10.3158461,14.4903858 13.4491366,15.1973624 C15.4545007,15.649057 17.5414827,16.1072927 19.5873831,16.218672 C21.3562553,16.3485841 25.0465107,16.2090421 25.9373999,16.5533548 C27.1240403,17.0117722 27.8051588,19.1261609 28.0523756,20.1945296 C28.4228371,21.7961741 28.3823008,23.5677037 27.9213143,25.163534 C27.0331518,28.24218 25.4611441,29.6005344 22.4003826,30.2457346 C20.5591631,30.6336542 18.6468688,30.487026 16.9719753,29.6428694 C15.338527,28.8174275 13.6983529,27.2317722 12.6395018,25.7774826 C11.5701075,24.3086574 10.4336376,22.4967914 10.4763552,20.5937143 C10.5112564,19.027137 11.637365,17.89572 13.1688364,17.7087555 C14.8740867,17.5012594 16.5349834,18.3828453 17.7336211,19.529888 C18.1137168,19.8940055 18.449459,20.2997312 18.7557533,20.7261702 C19.2999937,21.48493 19.7333501,22.3272696 20.1014486,23.1819645 C20.3115828,23.6696348 20.5384405,24.1589404 20.7640258,24.6500629 C21.0205132,25.2109565 21.7047219,24.8148606 22.2487805,24.6011869 C22.7712077,24.3967796 22.6232412,24.0379313 22.4494624,23.6812633 C21.3667984,21.4669421 19.8840432,19.0923656 17.583655,17.94823 C15.6350053,16.8820417 12.8974434,16.8191751 11.1213001,18.4117348 C9.19264584,20.1389308 9.65036038,23.041514 10.730843,25.1004857 C12.3259364,28.1420659 15.9767461,30.666541 19.4995848,30.9561634 C23.5548484,31.2883025 27.6242907,29.5629235 29.5676688,25.5758007 C31.1640346,22.2985617 30.1731681,18.0476173 28.4406513,14.8804857 L28.4406513,14.8804857 Z" id="Fill-21" fill="#FFFFFF"></path>
                            <path d="M24.6469648,0.74149872 C24.6624158,1.09544126 24.3868419,1.39396672 24.0349216,1.40868404 C23.6804564,1.42358306 23.3817967,1.14740613 23.3670728,0.79346359 C23.3521671,0.440066136 23.6281046,0.141722372 23.9814791,0.127005049 C24.3343083,0.112832812 24.6336951,0.38755618 24.6469648,0.74149872" id="Fill-23" fill="#FFFFFF"></path>
                        </g>
                        <path d="M24.5022359,15.1241392 C24.6947377,15.3218237 26.596489,14.7125992 26.9040557,14.6273841 C27.5051923,14.4609511 28.0968765,14.2481859 28.6425711,13.9431194 C29.5352781,13.4430938 30.2256672,12.7373891 30.5052403,11.7329772 C30.7869947,10.7174819 30.7731796,9.64638778 30.0787914,8.74481546 C29.3687703,7.82362004 28.33864,7.31614493 27.2739719,6.985096 C26.6312084,6.78541281 25.9768111,6.63442398 25.332048,6.44455234 C18.4096154,4.40865595 21.2455187,2.5119382 21.2455187,2.5119382 C21.2455187,2.5119382 22.3458151,1.51533921 23.8758323,1.23988906 C22.1773078,1.63980053 21.6005293,2.60314927 21.6005293,2.60314927 C21.6005293,2.60314927 20.1083217,4.60815745 26.0204376,6.06208363 C27.0654737,6.3835027 32.0781569,7.09320474 31.5635461,11.883966 C31.0133071,17.0052311 25.0739246,16.2897148 25.0739246,16.2897148 C25.0739246,16.2897148 24.6516566,15.2778534 24.5022359,15.1241392" id="Fill-25" fill="#FFFFFF"></path>
                        <path d="M32.7185573,3.15550313 C32.7185573,3.4302265 32.4960623,3.65480195 32.2186705,3.65480195 C31.9441872,3.65480195 31.720965,3.4302265 31.720965,3.15550313 C31.720965,2.88005298 31.9441872,2.656386 32.2186705,2.656386 C32.4960623,2.656386 32.7185573,2.88005298 32.7185573,3.15550313" id="Fill-26" fill="#FFFFFF"></path>
                        <path d="M36.9162439,16.3445125 C36.8689819,16.4001113 35.8432141,16.3445125 34.1935877,16.0419898 C32.9607759,15.8154157 32.4432567,15.7536392 31.362047,14.9954245 C30.1056042,14.1167458 28.7408223,12.7732904 28.6252121,10.8925619 C28.521781,9.18753271 29.0062167,7.11929455 29.9061948,5.80273005 C29.9243725,5.77674762 30.1790421,5.38573923 30.5642276,5 C30.0552519,5.234387 29.8076716,5.56452745 29.5740882,5.82598706 C28.2451164,7.66964977 27.5154634,10.5208132 28.3641803,12.7647507 C28.999491,14.4445242 30.0747021,16.3417871 31.5271005,16.9777208 C32.8468017,17.5558754 33.2868839,17.5148123 34.6054944,17.5558754 C34.6712977,17.5582374 36.4872501,17.4862861 36.5443281,17.4185137 L36.9162439,16.3445125" id="Fill-27" fill="#FFFFFF"></path>
                    </g>
                </g>
            </g>
        </g>
    </g>
</svg>